0
SECTION
2
HEADER
9
$INSUNITS
70
4
9
$ACADVER
1
AC1014
9
$HANDSEED
5
FFFF
0
ENDSEC
0
SECTION
2
TABLES
0
TABLE
2
VPORT
5
8
100
AcDbSymbolTable
0
ENDTAB
0
TABLE
2
LTYPE
5
5
100
AcDbSymbolTable
0
LTYPE
5
14
100
AcDbSymbolTableRecord
100
AcDbLinetypeTableRecord
2
BYBLOCK
70
0
0
LTYPE
5
15
100
AcDbSymbolTableRecord
100
AcDbLinetypeTableRecord
2
BYLAYER
70
0
0
ENDTAB
0
TABLE
2
LAYER
5
2
100
AcDbSymbolTable
70
2
0
LAYER
5
50
100
AcDbSymbolTableRecord
100
AcDbLayerTableRecord
2
0
70
0
6
CONTINUOUS
0
ENDTAB
0
TABLE
2
STYLE
5
3
100
AcDbSymbolTable
70
1
0
STYLE
5
11
100
AcDbSymbolTableRecord
100
AcDbTextStyleTableRecord
2
STANDARD
70
0
0
ENDTAB
0
TABLE
2
VIEW
5
6
100
AcDbSymbolTable
70
0
0
ENDTAB
0
TABLE
2
UCS
5
7
100
AcDbSymbolTable
70
0
0
ENDTAB
0
TABLE
2
APPID
5
9
100
AcDbSymbolTable
70
2
0
APPID
5
12
100
AcDbSymbolTableRecord
100
AcDbRegAppTableRecord
2
ACAD
70
0
0
ENDTAB
0
TABLE
2
DIMSTYLE
5
A
100
AcDbSymbolTable
70
1
0
ENDTAB
0
TABLE
2
BLOCK_RECORD
5
1
100
AcDbSymbolTable
70
1
0
BLOCK_RECORD
5
1F
100
AcDbSymbolTableRecord
100
AcDbBlockTableRecord
2
*MODEL_SPACE
0
BLOCK_RECORD
5
1B
100
AcDbSymbolTableRecord
100
AcDbBlockTableRecord
2
*PAPER_SPACE
0
ENDTAB
0
ENDSEC
0
SECTION
2
BLOCKS
0
BLOCK
5
20
100
AcDbEntity
100
AcDbBlockBegin
2
*MODEL_SPACE
0
ENDBLK
5
21
100
AcDbEntity
100
AcDbBlockEnd
0
BLOCK
5
1C
100
AcDbEntity
100
AcDbBlockBegin
2
*PAPER_SPACE
0
ENDBLK
5
1D
100
AcDbEntity
100
AcDbBlockEnd
0
ENDSEC
0
SECTION
2
ENTITIES
0
LWPOLYLINE
5
100
100
AcDbEntity
8
0
100
AcDbPolyline
90
9
70
1
43
0.0
10
-39.586675109083643
20
372.15459021769539
10
-145.58667668862282
20
188.55720187958954
10
-178.49564252281152
20
207.55720216271445
10
-177.49564201752838
20
209.28925271297072
10
-176.49564200262714
20
211.02130354634909
10
-172.165515409563
20
208.52130379221785
10
-70.165515409547496
20
385.19048616423436
10
-74.495640973074956
20
387.6904888340635
10
-72.495640943272321
20
391.15459050082029
0
LWPOLYLINE
5
101
100
AcDbEntity
8
0
100
AcDbPolyline
90
9
70
1
43
0.0
10
-277.53887898575465
20
-6.7639307162732365
10
-187.94380616164656
20
185.37332299856001
10
-153.50410974106327
20
169.31382881310665
10
-154.34934679033123
20
167.50121345132843
10
-155.1945833264077
20
165.68859785024512
10
-159.72612181592459
20
167.80168895113121
10
-245.94024721103614
20
-17.085099604340868
10
-241.40870949301839
20
-19.198193699559898
10
-243.09918256517136
20
-22.823424901726543
0
LWPOLYLINE
5
102
100
AcDbEntity
8
0
100
AcDbPolyline
90
4
70
1
43
0.0
10
1.9999999999999991
20
30
10
1.9999999999999991
20
70
10
-2.0000000000000013
20
70
10
-2.0000000000000013
20
30
0
LWPOLYLINE
5
103
100
AcDbEntity
8
0
100
AcDbPolyline
90
4
70
1
43
0.0
10
62
20
-95
10
62
20
-55
10
58
20
-55
10
58
20
-95
0
LWPOLYLINE
5
104
100
AcDbEntity
8
0
100
AcDbPolyline
90
4
70
1
43
0.0
10
-58
20
-95
10
-58
20
-55
10
-62
20
-55
10
-62
20
-95
0
CIRCLE
5
105
100
AcDbEntity
8
0
100
AcDbCircle
10
-120
20
-75
30
0
40
17.5
210
0
220
0
230
1
0
CIRCLE
5
106
100
AcDbEntity
8
0
100
AcDbCircle
10
0
20
175
30
0
40
17.5
210
0
220
0
230
1
0
CIRCLE
5
107
100
AcDbEntity
8
0
100
AcDbCircle
10
0
20
-75
30
0
40
17.5
210
0
220
0
230
1
0
CIRCLE
5
108
100
AcDbEntity
8
0
100
AcDbCircle
10
-59.999999999999972
20
50
30
0
40
17.5
210
0
220
0
230
1
0
CIRCLE
5
109
100
AcDbEntity
8
0
100
AcDbCircle
10
60.000000000000036
20
50
30
0
40
17.5
210
0
220
0
230
1
0
CIRCLE
5
110
100
AcDbEntity
8
0
100
AcDbCircle
10
120
20
-75
30
0
40
17.5
210
0
220
0
230
1
0
LWPOLYLINE
5
111
100
AcDbEntity
8
0
100
AcDbPolyline
90
31
70
1
43
0.0
10
100
20
-199.99999999999997
10
-100
20
-199.99999999999997
10
-100
20
-149.99999999999997
10
-103.99999999999999
20
-150.00000000000028
10
-103.99999999999999
20
-200.00000000000028
10
-300
20
-200
10
-200
20
-100
10
-250
20
-100
10
-160
20
0
10
-200
20
0
10
-120
20
100
10
-150
20
100
10
-80
20
200
10
-100
20
200
10
-40
20
300
10
-50
20
300
10
0
20
400
10
50
20
300
10
40
20
300
10
100
20
200
10
80
20
200
10
150
20
100
10
120
20
100
10
200
20
0
10
160
20
0
10
250
20
-100
10
200
20
-100
10
300
20
-200
10
103.99999999999999
20
-200
10
103.99999999999999
20
-150
10
100
20
-150
0
LWPOLYLINE
5
112
100
AcDbEntity
8
0
100
AcDbPolyline
90
4
70
1
43
0.0
10
323.0000000000021
20
167.38290905555192
10
323.00000000000603
20
127.38290905555189
10
327.00000000000603
20
127.38290905555225
10
327.0000000000021
20
167.38290905555232
0
LWPOLYLINE
5
113
100
AcDbEntity
8
0
100
AcDbPolyline
90
4
70
1
43
0.0
10
262.99999999998994
20
292.38290905554618
10
262.9999999999938
20
252.38290905554618
10
266.99999999999375
20
252.38290905554658
10
266.99999999998988
20
292.38290905554658
0
LWPOLYLINE
5
114
100
AcDbEntity
8
0
100
AcDbPolyline
90
4
70
1
43
0.0
10
382.99999999998994
20
292.38290905555789
10
382.99999999999386
20
252.38290905555783
10
386.99999999999392
20
252.38290905555823
10
386.99999999999
20
292.38290905555823
0
CIRCLE
5
115
100
AcDbEntity
8
0
100
AcDbCircle
10
444.99999999999204
20
272.38290905556386
30
0
40
40.000000000000036
210
0
220
-0
230
1
0
CIRCLE
5
116
100
AcDbEntity
8
0
100
AcDbCircle
10
325.0000000000162
20
22.382909055551963
30
0
40
40.000000000000036
210
0
220
-0
230
1
0
CIRCLE
5
117
100
AcDbEntity
8
0
100
AcDbCircle
10
324.99999999999193
20
272.3829090555522
30
0
40
40.000000000000036
210
0
220
-0
230
1
0
CIRCLE
5
118
100
AcDbEntity
8
0
100
AcDbCircle
10
385.00000000000404
20
147.38290905555795
30
0
40
40.000000000000036
210
0
220
-0
230
1
0
CIRCLE
5
119
100
AcDbEntity
8
0
100
AcDbCircle
10
265.00000000000392
20
147.38290905554629
30
0
40
40.000000000000036
210
0
220
-0
230
1
0
CIRCLE
5
120
100
AcDbEntity
8
0
100
AcDbCircle
10
204.99999999999179
20
272.38290905554055
30
0
40
40.000000000000036
210
0
220
-0
230
1
0
LWPOLYLINE
5
121
100
AcDbEntity
8
0
100
AcDbPolyline
90
31
70
1
43
0.0
10
224.99999999997965
20
397.3829090555426
10
424.99999999997982
20
397.38290905556198
10
424.99999999998471
20
347.38290905556198
10
428.99999999998465
20
347.38290905556266
10
428.99999999997988
20
397.38290905556266
10
624.99999999997999
20
397.38290905558142
10
524.99999999998965
20
297.3829090555717
10
574.99999999998965
20
297.38290905557653
10
484.99999999999932
20
197.38290905556769
10
524.99999999999932
20
197.38290905557159
10
445.00000000000904
20
97.382909055563687
10
475.00000000000904
20
97.3829090555666
10
405.0000000000187
20
-2.6170909444402461
10
425.0000000000187
20
-2.617090944438285
10
365.00000000002836
20
-102.61709094444426
10
375.00000000002842
20
-102.61709094444329
10
325.00000000003803
20
-202.61709094444819
10
275.00000000002831
20
-102.617090944453
10
285.00000000002831
20
-102.61709094445203
10
225.00000000001853
20
-2.6170909444577255
10
245.0000000000185
20
-2.6170909444558177
10
175.00000000000878
20
97.382909055537468
10
205.00000000000881
20
97.382909055540395
10
124.99999999999901
20
197.38290905553271
10
164.99999999999909
20
197.38290905553663
10
74.999999999989257
20
297.38290905552793
10
124.99999999998927
20
297.38290905553282
10
24.999999999979501
20
397.38290905552321
10
220.99999999997965
20
397.3829090555422
10
220.99999999998454
20
347.3829090555422
10
224.99999999998454
20
347.38290905554254
0
LWPOLYLINE
5
122
100
AcDbEntity
8
0
100
AcDbPolyline
90
9
70
1
43
0.0
10
512.17964623968601
20
136.91585130093088
10
601.77471906379822
20
329.05310501576253
10
636.21441548438133
20
312.99361083030846
10
635.36917843511321
20
311.18099546853023
10
634.52394189903669
20
309.36837986744695
10
629.99240340951997
20
311.48147096833316
10
543.77827801440435
20
126.59468241286257
10
548.30981573242207
20
124.48158831764344
10
546.61934266026901
20
120.85635711547681
0
LWPOLYLINE
5
123
100
AcDbEntity
8
0
100
AcDbPolyline
90
4
70
1
43
0.0
10
638.15809782601934
20
77.166190034195495
10
511.37261930382459
20
-194.72614607680674
10
466.05722995199085
20
-173.59523298977427
10
592.84270847418566
20
98.297103121227934
0
LWPOLYLINE
5
124
100
AcDbEntity
8
0
100
AcDbPolyline
90
4
70
1
43
0.0
10
547.54809471616625
20
57.355715851499589
10
397.54809471616932
20
-202.45190528383387
10
354.24682452694708
20
-177.45190528383444
10
504.24682452694407
20
82.355715851499014
0
LWPOLYLINE
5
125
100
AcDbEntity
8
0
100
AcDbPolyline
90
31
70
1
43
0.0
10
250.49397972903563
20
-100.22
10
200.53112698372203
20
-100.22
10
300.53112698372206
20
-200.21999999999997
10
103.77999999999999
20
-200.21999999999997
10
103.77999999999999
20
-150.22
10
100.22
20
-150.22
10
100.22
20
-200.21999999999994
10
-100.22
20
-200.21999999999994
10
-100.22
20
-150.22
10
-103.77999999999999
20
-150.22000000000025
10
-103.78
20
-200.22000000000025
10
-300.53112698372206
20
-200.21999999999997
10
-200.53112698372206
20
-100.22
10
-250.49397972903563
20
-100.22
10
-160.49397972903563
20
-0.22000000000000003
10
-200.45773746644704
20
-0.22000000000000242
10
-120.45773746644704
20
99.780000000000001
10
-150.42254422354614
20
99.780000000000001
10
-80.42254422354614
20
199.78000000000003
10
-100.38856188337319
20
199.78000000000003
10
-40.388561883373171
20
299.78000000000003
10
-50.355967477524956
20
299.78000000000003
10
8.8817841970012523e-15
20
400.49193495504994
10
50.35596747752497
20
299.78000000000003
10
40.3885618833732
20
299.78000000000003
10
100.38856188337319
20
199.78000000000003
10
80.42254422354614
20
199.78000000000003
10
150.42254422354614
20
99.780000000000001
10
120.45773746644701
20
99.780000000000015
10
200.45773746644701
20
-0.21999999999999181
10
160.49397972903563
20
-0.21999999999998465
0
LWPOLYLINE
5
126
100
AcDbEntity
8
0
100
AcDbPolyline
90
31
70
1
43
0.0
10
204.54226253356177
20
97.602909055540323
10
124.54226253355193
20
197.60290905553265
10
164.50602027096346
20
197.60290905553654
10
74.506020270953641
20
297.60290905552785
10
124.46887301626718
20
297.60290905553279
10
24.468873016257433
20
397.60290905552313
10
221.21999999997962
20
397.60290905554223
10
221.21999999998448
20
347.60290905554223
10
224.77999999998451
20
347.60290905554251
10
224.77999999997962
20
397.60290905554257
10
425.21999999997979
20
397.60290905556195
10
425.21999999998468
20
347.60290905556201
10
428.77999999998462
20
347.60290905556258
10
428.77999999997991
20
397.60290905556269
10
625.53112698370205
20
397.60290905558151
10
525.5311269837116
20
297.60290905557167
10
575.49397972902523
20
297.60290905557656
10
485.49397972903483
20
197.60290905556772
10
525.45773746644636
20
197.60290905557159
10
445.45773746645608
20
97.602909055563742
10
475.42254422355512
20
97.602909055566641
10
405.42254422356478
20
-2.3970909444402051
10
425.3885618833919
20
-2.3970909444382471
10
365.38856188340156
20
-102.39709094444422
10
375.35596747755335
20
-102.39709094444325
10
325.00000000003809
20
-203.10902589949808
10
274.64403252250332
20
-102.39709094445303
10
284.61143811665511
20
-102.39709094445205
10
224.61143811664533
20
-2.3970909444577622
10
244.57745577647231
20
-2.3970909444558686
10
174.57745577646256
20
97.602909055537438
0
LWPOLYLINE
5
127
100
AcDbEntity
8
0
100
AcDbPolyline
90
9
70
1
43
0.0
10
-74.79616649503113
20
387.60996336106422
10
-72.576166532104864
20
391.45511608965296
10
-39.286149520251058
20
372.23511580652797
10
-145.50615109979026
20
188.25667629075696
10
-178.7961681655861
20
207.47667660502532
10
-177.68616760636095
20
209.39925271297074
10
-176.57616759145969
20
211.32182913518167
10
-172.24604099839553
20
208.82182938105046
10
-70.466040931503684
20
385.10996069123507
0
LWPOLYLINE
5
128
100
AcDbEntity
8
0
100
AcDbPolyline
90
9
70
1
43
0.0
10
-154.14995907718315
20
167.40823743374548
10
-155.08817163084262
20
165.39623411951411
10
-159.61971012035949
20
167.50932522040017
10
-245.6478835368315
20
-16.97868802999696
10
-241.11634581881373
20
-19.091782125215992
10
-242.99277086960626
20
-23.115788632457551
10
-277.83124271648563
20
-6.8703424118383438
10
-188.05021785721166
20
185.665686729291
10
-153.21174595388118
20
169.42024048234816
0
LWPOLYLINE
5
129
100
AcDbEntity
8
0
100
AcDbPolyline
90
4
70
1
43
0.0
10
353.94629893811452
20
-177.53243087266699
10
504.16629893811148
20
82.656241440331613
10
547.8486203049988
20
57.436241440332196
10
397.62862030500185
20
-202.75243087266645
0
LWPOLYLINE
5
130
100
AcDbEntity
8
0
100
AcDbPolyline
90
4
70
1
43
0.0
10
465.76486622125981
20
-173.7016446853394
10
592.7362967786205
20
98.589466851958917
10
638.45046155675038
20
77.272601729760623
10
511.47903099938969
20
-195.01850980753773
0
LWPOLYLINE
5
131
100
AcDbEntity
8
0
100
AcDbPolyline
90
9
70
1
43
0.0
10
635.56856614826131
20
311.08801945094729
10
634.63035359460173
20
309.07601613671591
10
630.09881510508512
20
311.18910723760217
10
544.07064168860904
20
126.70109398720648
10
548.60217940662676
20
124.58799989198735
10
546.72575435583417
20
120.56399338474577
10
511.88728250895497
20
136.80943960536581
10
601.66830736823317
20
329.34546874649357
10
636.50677927156335
20
313.10002249954999
0
LWPOLYLINE
5
132
100
AcDbEntity
8
0
100
AcDbPolyline
90
4
70
1
43
0.0
10
-61.780000000000001
20
-55.219999999999999
10
-61.780000000000001
20
-94.780000000000001
10
-58.219999999999999
20
-94.780000000000001
10
-58.219999999999999
20
-55.219999999999999
0
LWPOLYLINE
5
133
100
AcDbEntity
8
0
100
AcDbPolyline
90
4
70
1
43
0.0
10
58.219999999999999
20
-55.219999999999999
10
58.219999999999999
20
-94.780000000000001
10
61.780000000000001
20
-94.780000000000001
10
61.780000000000001
20
-55.219999999999999
0
LWPOLYLINE
5
134
100
AcDbEntity
8
0
100
AcDbPolyline
90
4
70
1
43
0.0
10
-1.7800000000000014
20
69.780000000000001
10
-1.7800000000000014
20
30.219999999999999
10
1.7799999999999991
20
30.219999999999999
10
1.7799999999999985
20
69.780000000000001
0
LWPOLYLINE
5
135
100
AcDbEntity
8
0
100
AcDbPolyline
90
4
70
1
43
0.0
10
263.21999999998991
20
292.16290905554627
10
263.21999999999372
20
252.60290905554621
10
266.77999999999378
20
252.60290905554652
10
266.77999999998997
20
292.16290905554661
0
LWPOLYLINE
5
136
100
AcDbEntity
8
0
100
AcDbPolyline
90
4
70
1
43
0.0
10
386.77999999999395
20
252.60290905555817
10
386.77999999999003
20
292.1629090555582
10
383.21999999998991
20
292.16290905555792
10
383.21999999999383
20
252.60290905555786
0
LWPOLYLINE
5
137
100
AcDbEntity
8
0
100
AcDbPolyline
90
4
70
1
43
0.0
10
323.22000000000207
20
167.16290905555198
10
323.220000000006
20
127.60290905555192
10
326.780000000006
20
127.60290905555223
10
326.78000000000213
20
167.16290905555229
0
ENDSEC
0
SECTION
2
OBJECTS
0
DICTIONARY
5
C
100
AcDbDictionary
3
ACAD_GROUP
350
D
3
ACAD_MLINESTYLE
350
17
0
DICTIONARY
5
D
100
AcDbDictionary
0
DICTIONARY
5
1A
330
C
100
AcDbDictionary
0
DICTIONARY
5
17
100
AcDbDictionary
0
ENDSEC
0
EOF
